<svg width="24" height="21" viewBox="0 0 24 21" fill="none" xmlns="http://www.w3.org/2000/svg">
<path d="M4.60641 9.11086C4.60641 8.69305 4.26604 8.35547 3.84713 8.35547H2.32713C1.90677 8.35547 1.56641 8.69305 1.56641 9.11086V18.7835H4.60641V9.11086Z" fill="#131313" fill-opacity="0.7"/>
<path d="M6.60448 6.87572C6.18411 6.87572 5.84375 7.21475 5.84375 7.63112V18.7835H8.88375V7.63039C8.88375 7.21402 8.54266 6.875 8.12448 6.875H6.60448V6.87572Z" fill="#131313" fill-opacity="0.7"/>
<path d="M10.8786 9.75781C10.4583 9.75781 10.1172 10.0968 10.1172 10.5125V18.7842H13.1579V10.5125C13.1579 10.0968 12.8168 9.75781 12.3986 9.75781H10.8786Z" fill="#131313" fill-opacity="0.7"/>
<path d="M15.1514 6.12109C14.731 6.12109 14.3906 6.46012 14.3906 6.87649V18.7842H17.4314V6.87649C17.4314 6.46012 17.0917 6.12109 16.6714 6.12109H15.1514Z" fill="#131313" fill-opacity="0.7"/>
<path d="M19.4287 4.60938C19.0083 4.60938 18.668 4.94695 18.668 5.36477V18.7826H21.708V5.36477C21.708 4.94695 21.3691 4.60938 20.9487 4.60938H19.4287Z" fill="#131313" fill-opacity="0.7"/>
<path d="M3.08533 6.55565C3.58788 6.55565 3.99588 6.14868 3.99588 5.64845C3.99588 5.64412 3.99442 5.63761 3.99442 5.63327L6.63878 4.71885C6.80533 4.93426 7.06497 5.07594 7.36024 5.07594C7.56969 5.07594 7.75951 5.00221 7.91369 4.88438L10.7617 6.80287C10.7406 6.88166 10.7231 6.96407 10.7231 7.04864C10.7231 7.55031 11.1319 7.95584 11.6359 7.95584C12.1384 7.95584 12.5471 7.55031 12.5471 7.04864C12.5471 6.9272 12.5224 6.81227 12.4781 6.70528L15.4402 4.18682C15.5777 4.26995 15.7384 4.32055 15.9108 4.32055C16.4133 4.32055 16.8213 3.9143 16.8213 3.41335C16.8213 3.40757 16.8199 3.39962 16.8199 3.39384L19.4693 2.45628C19.6359 2.67097 19.8941 2.81048 20.1864 2.81048C20.689 2.81048 21.0984 2.40351 21.0984 1.90329C21.0984 1.40162 20.689 0.996094 20.1864 0.996094C19.6817 0.996094 19.2737 1.40162 19.2737 1.90329C19.2737 1.90907 19.2752 1.91702 19.2766 1.92281L16.6279 2.86036C16.4613 2.64567 16.2031 2.50616 15.9108 2.50616C15.4061 2.50616 14.9981 2.91241 14.9981 3.41335C14.9981 3.5348 15.0242 3.6519 15.0671 3.75888L12.1064 6.27735C11.9675 6.19422 11.8082 6.14362 11.6359 6.14362C11.4264 6.14362 11.2351 6.21662 11.081 6.33517L8.23297 4.41452C8.25624 4.3379 8.27151 4.25477 8.27151 4.16875C8.27151 3.66925 7.86351 3.263 7.36024 3.263C6.85624 3.263 6.44824 3.66925 6.44824 4.16875C6.44824 4.17453 6.44969 4.17959 6.44969 4.18465L3.8046 5.0998C3.63806 4.88438 3.37842 4.74126 3.0846 4.74126C2.57988 4.74126 2.17188 5.14823 2.17188 5.64845C2.17188 6.14868 2.5806 6.55565 3.08533 6.55565Z" fill="#131313" fill-opacity="0.7"/>
<path d="M23.2727 19.5586H0V20.8554H23.2727V19.5586Z" fill="#131313" fill-opacity="0.7"/>
</svg>
