<svg width="24" height="23" viewBox="0 0 24 23" fill="none" xmlns="http://www.w3.org/2000/svg">
<path fill-rule="evenodd" clip-rule="evenodd" d="M12.3216 0.133473L23.8179 9.6842C24.1735 9.98081 23.9364 10.574 23.4623 10.574H20.7957V22.1417C20.7957 22.4383 20.5586 22.6756 20.2623 22.6756H14.692C14.3957 22.6756 14.1586 22.4383 14.1586 22.1417V15.4384C14.1586 15.1418 13.9809 14.9045 13.6846 14.9045H10.3068C10.0105 14.9045 9.77346 15.1418 9.77346 15.4384V22.1417C9.77346 22.4383 9.59568 22.6756 9.29939 22.6756H3.72902C3.43272 22.6756 3.19568 22.4383 3.19568 22.1417V10.574H0.469756C0.0549414 10.574 -0.182096 9.98081 0.17346 9.6842L11.6698 0.133473C11.8475 -0.044491 12.1438 -0.044491 12.3216 0.133473Z" fill="url(#paint0_linear_0_389)"/>
<defs>
<linearGradient id="paint0_linear_0_389" x1="4" y1="-2.98048e-07" x2="20" y2="23" gradientUnits="userSpaceOnUse">
<stop stop-color="#008690"/>
<stop offset="0.593103" stop-color="#25BCBD"/>
</linearGradient>
</defs>
</svg>
