<svg width="21" height="18" viewBox="0 0 21 18" fill="none" xmlns="http://www.w3.org/2000/svg">
<path d="M18.75 0H2.25C1.65326 0 1.08097 0.237053 0.65901 0.65901C0.237053 1.08097 0 1.65326 0 2.25V12.75C0 13.3467 0.237053 13.919 0.65901 14.341C1.08097 14.7629 1.65326 15 2.25 15H3.75V17.25C3.74972 17.3906 3.78895 17.5284 3.86321 17.6477C3.93747 17.7671 4.04377 17.8632 4.17 17.925C4.29115 17.9787 4.42439 17.9994 4.55613 17.9849C4.68787 17.9704 4.81343 17.9213 4.92 17.8425L8.6625 15H18.75C19.3467 15 19.919 14.7629 20.341 14.341C20.7629 13.919 21 13.3467 21 12.75V2.25C21 1.65326 20.7629 1.08097 20.341 0.65901C19.919 0.237053 19.3467 0 18.75 0ZM15.75 9.75H5.25V8.25H15.75V9.75ZM15.75 6.75H5.25V5.25H15.75V6.75Z" fill="#131313" fill-opacity="0.7"/>
</svg>
