<svg width="59" height="59" viewBox="0 0 59 59" fill="none" xmlns="http://www.w3.org/2000/svg">
<path d="M42.8304 45.7566C42.7115 39.9568 38.8448 35.0538 33.6099 33.3198C36.8222 31.7054 39.0232 28.357 39.0232 24.4705C39.0232 19.0294 34.6212 14.5449 29.1484 14.5449C23.735 14.5449 19.2735 18.9696 19.2735 24.4705C19.2735 28.4168 21.5935 31.8848 24.9843 33.4394C20.1658 35.1734 16.5966 39.6578 16.1802 45.0391C14.3955 45.2185 13.0273 47.0123 13.0273 49.105V51.8555C13.0273 52.9915 13.8602 53.8884 14.8714 53.8884H15.4068C15.8827 53.8884 16.2397 53.5297 16.2397 53.0513C16.2397 52.573 15.8827 52.2142 15.4068 52.2142H14.8714C14.812 52.2142 14.7525 52.0947 14.7525 51.8555V49.105C14.7525 47.8494 15.5853 46.7133 16.5371 46.7133H18.2622C19.214 46.7133 20.0468 47.7896 20.0468 49.105V51.8555C20.0468 52.0349 19.9279 52.1544 19.9279 52.2142H19.2735C18.7976 52.2142 18.4407 52.573 18.4407 53.0513C18.4407 53.5297 18.7976 53.8884 19.2735 53.8884H19.9279C20.9391 53.8884 21.772 52.9915 21.772 51.8555V49.105C21.772 46.8329 20.2253 45.0391 18.3217 45.0391H18.0243C18.5597 39.1197 23.5566 34.3961 29.6243 34.3961C35.9299 34.3961 41.0458 39.4186 41.2243 45.6968C39.8561 46.0556 38.8448 47.2515 38.8448 48.7463C38.8448 50.4803 40.2725 51.9153 41.9976 51.9153C43.7227 51.9153 45.1504 50.4803 45.1504 48.7463C44.972 47.371 44.0797 46.1752 42.8304 45.7566ZM21.0581 24.4705C21.0581 19.9263 24.7463 16.2789 29.2079 16.2789C33.6694 16.2789 37.3576 19.9263 37.3576 24.4705C37.3576 29.0147 33.6694 32.6621 29.2079 32.6621C24.7463 32.6621 21.0581 29.0147 21.0581 24.4705ZM41.8786 50.1813C41.1053 50.1813 40.4509 49.5236 40.4509 48.7463C40.4509 47.969 41.1053 47.3112 41.8786 47.3112C42.652 47.3112 43.3063 47.969 43.3063 48.7463C43.2468 49.5236 42.652 50.1813 41.8786 50.1813Z" fill="#008690"/>
<path d="M19.8671 54.1275H19.2128C18.6179 54.1275 18.142 53.6492 18.142 53.0512C18.142 52.4533 18.6179 51.975 19.2128 51.975H19.6887C19.6887 51.975 19.6887 51.9152 19.6887 51.8554V49.1049C19.6887 47.9689 18.9748 46.9524 18.142 46.9524H16.4169C15.5841 46.9524 14.8702 47.9091 14.8702 49.1049V51.8554C14.8702 51.9152 14.8702 51.9152 14.8702 51.975H15.2866C15.8815 51.975 16.3574 52.4533 16.3574 53.0512C16.3574 53.6492 15.8815 54.1275 15.2866 54.1275H14.8702C13.74 54.1275 12.8477 53.111 12.8477 51.8554V49.1049C12.8477 46.9524 14.2159 45.1586 16.0005 44.8597C16.4764 39.7773 19.7482 35.3526 24.4476 33.4393C21.1758 31.7053 19.0938 28.2373 19.0938 24.4704C19.0938 18.8499 23.6148 14.3057 29.2066 14.3057C34.7984 14.3057 39.3194 18.8499 39.3194 24.4704C39.3194 28.1177 37.3563 31.4661 34.2035 33.2599C39.3789 35.1733 42.8886 40.0763 43.0671 45.5772C44.3758 46.0555 45.2086 47.3112 45.2086 48.6864C45.2086 50.54 43.7215 52.0348 41.8774 52.0348C40.0333 52.0348 38.5461 50.54 38.5461 48.6864C38.5461 47.1916 39.4979 45.8761 40.9256 45.4576C40.5686 39.4185 35.6312 34.6351 29.504 34.6351C23.7338 34.6351 18.7964 39.0598 18.2015 44.7999H18.261C20.2835 44.7999 21.9492 46.7132 21.9492 49.1049V51.8554C21.9492 53.111 20.9974 54.1275 19.8671 54.1275ZM19.2723 52.3935C18.9153 52.3935 18.6179 52.6925 18.6179 53.0512C18.6179 53.41 18.9153 53.709 19.2723 53.709H19.9266C20.8189 53.709 21.5328 52.8719 21.5328 51.8554V49.1049C21.5328 46.9524 20.0456 45.2184 18.261 45.2184H17.7256V44.9792C18.261 38.9402 23.4364 34.1568 29.504 34.1568C35.9287 34.1568 41.104 39.2392 41.342 45.6968V45.8761L41.1635 45.9359C39.8548 46.2349 38.9625 47.4307 38.9625 48.7462C38.9625 50.3606 40.2712 51.676 41.8774 51.676C43.4835 51.676 44.7922 50.3606 44.7922 48.7462C44.7922 47.4905 44.0189 46.4143 42.8292 45.9957L42.6507 45.9359V45.7565C42.5317 40.136 38.903 35.2331 33.6087 33.4991L33.0733 33.3197L33.5492 33.0805C36.821 31.4063 38.8435 28.1177 38.8435 24.4106C38.8435 19.0891 34.501 14.7242 29.2066 14.7242C23.9123 14.7242 19.5697 19.0891 19.5697 24.4106C19.5697 28.1775 21.7707 31.5857 25.1615 33.2001L25.6374 33.4393L25.102 33.6187C20.2241 35.3526 16.8333 39.8371 16.4169 44.9792V45.1586H16.2384C14.5728 45.338 13.2641 47.0122 13.2641 48.9853V51.7358C13.2641 52.7523 13.9779 53.5894 14.8702 53.5894H15.4056C15.7625 53.5894 16.06 53.2904 16.06 52.9317C16.06 52.5729 15.7625 52.2739 15.4056 52.2739H14.8702H14.8107C14.6918 52.2141 14.5728 52.0348 14.5728 51.7358V48.9853C14.5728 47.5503 15.4651 46.4143 16.5359 46.4143H18.261C19.3318 46.4143 20.2241 47.6101 20.2241 48.9853V51.7358C20.2241 51.975 20.1051 52.2141 20.0456 52.2739L19.9861 52.3337H19.2723V52.3935ZM41.8774 50.3606C40.9851 50.3606 40.2712 49.6431 40.2712 48.7462C40.2712 47.8493 40.9851 47.1318 41.8774 47.1318C42.7697 47.1318 43.4835 47.8493 43.4835 48.7462C43.4835 49.6431 42.7697 50.3606 41.8774 50.3606ZM41.8774 47.5503C41.223 47.5503 40.6876 48.0885 40.6876 48.7462C40.6876 49.4039 41.223 49.942 41.8774 49.942C42.5317 49.942 43.0671 49.4039 43.0671 48.7462C43.0671 48.0885 42.5317 47.5503 41.8774 47.5503ZM29.2066 32.9011C24.5666 32.9011 20.8189 29.1342 20.8189 24.4704C20.8189 19.8066 24.5666 16.0396 29.2066 16.0396C33.8466 16.0396 37.5943 19.8066 37.5943 24.4704C37.5943 29.1342 33.7871 32.9011 29.2066 32.9011ZM29.2066 16.518C24.8046 16.518 21.2948 20.1055 21.2948 24.4704C21.2948 28.8353 24.864 32.4228 29.2066 32.4228C33.6087 32.4228 37.1184 28.8353 37.1184 24.4704C37.1184 20.1055 33.5492 16.518 29.2066 16.518Z" fill="#008690"/>
<path d="M57.7026 28.237L48.7795 19.2681V5.63545C48.7795 4.97773 48.2441 4.4396 47.5897 4.4396H39.2021C38.5477 4.4396 38.0123 4.97773 38.0123 5.63545V8.50549L29.8626 0.313911C29.3867 -0.104637 28.6728 -0.104637 28.1969 0.313911L0.356923 28.237C0.118974 28.4762 0 28.7752 0 29.1339C0 29.4329 0.118974 29.7318 0.356923 29.971C0.594872 30.2102 0.892308 30.3298 1.18974 30.3298H5.82974V57.1168C5.82974 57.7746 6.36513 58.3127 7.01949 58.3127H51.04C51.6944 58.3127 52.2297 57.7746 52.2297 57.1168V30.3298H56.8697C57.1672 30.3298 57.4646 30.2102 57.7026 29.971C57.9405 29.7318 58.0595 29.4329 58.0595 29.1339C58 28.7752 57.881 28.4762 57.7026 28.237ZM51.04 27.9381C50.3856 27.9381 49.8503 28.4762 49.8503 29.1339V55.921H8.20923V29.1339C8.20923 28.4762 7.67385 27.9381 7.01949 27.9381H4.04513L29.0297 2.8252L38.4287 12.2724C38.9046 12.7508 39.678 12.7508 40.1538 12.2724C40.2728 12.1528 40.3323 12.0332 40.3918 11.9137C40.5108 10.3591 40.5703 8.74466 40.5108 7.19005V6.89109H46.4V19.8661C46.4 20.165 46.519 20.464 46.7569 20.7032L53.9549 27.9381H51.04Z" fill="#25BCBD"/>
</svg>
