<svg width="24" height="24" viewBox="0 0 24 24" fill="none" xmlns="http://www.w3.org/2000/svg">
<path d="M20.3684 1.80388L16.1706 4.03935C15.3711 4.46516 14.7229 5.54474 14.7229 6.45073V18.5308H9.36565C8.88277 18.5308 8.49131 18.1389 8.49131 17.6565V13.6392C8.49131 13.1861 8.12413 12.8185 7.67119 12.8185H7.50756C7.05248 12.8185 6.68743 13.1856 6.68743 13.6386V18.6942C6.68743 19.6002 7.42137 20.3346 8.32708 20.3346H14.7229V22.958C14.7229 23.8639 15.3707 24.2533 16.1707 23.8273L23.0405 20.1688C23.0744 20.1523 23.1076 20.1346 23.1401 20.1158L23.3651 19.9594C23.729 19.6585 23.9609 19.2035 23.9609 18.6942V1.6404C23.9609 0.734434 23.227 0 22.3213 0H8.32708C7.42153 0 6.68743 0.734227 6.68743 1.6404V6.69607C6.68743 7.14861 7.05462 7.51616 7.50756 7.51616H7.67119C8.12627 7.51616 8.49131 7.14872 8.49131 6.69546V2.67817C8.49131 2.19531 8.88283 1.80388 9.36565 1.80388H20.3684ZM5.10221 11.4534H9.4755C10.1999 11.4534 10.7872 10.8662 10.7872 10.1415C10.7872 9.41693 10.1996 8.82957 9.4755 8.82957H5.10221V7.70873C5.10221 6.80318 4.49966 6.48861 3.75667 7.00593L0.598803 9.20463C-0.144316 9.72204 -0.14419 10.561 0.598803 11.0783L3.75667 13.277C4.49979 13.7944 5.10221 13.4794 5.10221 12.5742V11.4534Z" fill="#131313" fill-opacity="0.7"/>
</svg>
