<svg width="105" height="60" viewBox="0 0 105 60" fill="none" xmlns="http://www.w3.org/2000/svg">
<path d="M17.8649 11.075C17.8649 20.1071 12.4091 22.4726 6.73945 22.4726H0V0H6.20457C12.1952 0 17.8649 1.82792 17.8649 11.075ZM5.24179 3.87088V18.6017H6.9534C10.1627 18.6017 12.3022 17.0964 12.3022 11.075C12.3022 5.05365 10.0557 3.76335 6.9534 3.76335H5.24179V3.87088Z" fill="#25BCBD"/>
<path d="M35.4155 19.5702L34.3457 22.9034C32.3132 22.6884 31.0295 22.1508 30.1737 20.4304C28.997 22.3658 27.0714 23.011 25.0389 23.011C21.6157 23.011 19.4762 20.753 19.4762 17.6347C19.4762 13.8714 22.3645 11.8284 27.4993 11.8284H29.2109V11.0757C29.2109 9.03278 28.3551 8.38763 26.3226 8.38763C25.2529 8.38763 23.5413 8.71021 21.8296 9.24783L20.6529 5.91456C22.7924 5.05436 25.1459 4.62427 27.0714 4.62427C31.9923 4.62427 34.1318 6.77476 34.1318 10.7532V17.4197C34.2388 18.8175 34.5597 19.2476 35.4155 19.5702ZM29.2109 17.7423V14.7316H27.9272C25.5738 14.7316 24.504 15.5918 24.504 17.3122C24.504 18.71 25.2529 19.4627 26.5366 19.4627C27.7133 19.3551 28.5691 18.71 29.2109 17.7423Z" fill="#25BCBD"/>
<path d="M49.3196 4.94721L48.4638 9.89334C47.9289 9.78581 47.501 9.67828 46.9661 9.67828C44.8266 9.67828 43.9708 11.2912 43.4359 13.8717V22.3662H38.3011V5.16226H42.7941L43.222 8.49552C43.9708 6.12998 45.6824 4.62463 47.608 4.62463C48.2498 4.73216 48.6777 4.83969 49.3196 4.94721Z" fill="#25BCBD"/>
<path d="M69.109 11.075C69.109 20.1071 63.6533 22.4726 57.9836 22.4726H51.3511V0H57.5557C63.5463 0 69.109 1.82792 69.109 11.075ZM56.5929 3.87088V18.6017H58.3045C61.5138 18.6017 63.6533 17.0964 63.6533 11.075C63.6533 5.05365 61.4068 3.76335 58.3045 3.76335H56.5929V3.87088Z" fill="#008690"/>
<path d="M88.0457 13.8705C88.0457 19.3542 84.8364 23.0101 79.7016 23.0101C74.4598 23.0101 71.3575 19.6768 71.3575 13.8705C71.3575 8.38673 74.5668 4.7309 79.7016 4.7309C84.8364 4.7309 88.0457 8.06415 88.0457 13.8705ZM76.4924 13.8705C76.4924 17.7414 77.5621 19.2467 79.5946 19.2467C81.6272 19.2467 82.6969 17.6338 82.6969 13.8705C82.6969 9.99959 81.6272 8.49425 79.5946 8.49425C77.5621 8.49425 76.4924 10.1071 76.4924 13.8705Z" fill="#008690"/>
<path d="M104.3 6.77513L102.053 9.78582C100.983 8.92562 99.9137 8.60304 98.844 8.60304C96.5975 8.60304 95.4207 10.1084 95.4207 13.9793C95.4207 17.8502 96.8114 18.9254 98.844 18.9254C100.021 18.9254 100.876 18.4953 102.16 17.7426L104.407 20.9684C102.802 22.2587 100.983 23.0113 98.63 23.0113C93.3882 23.0113 90.179 19.463 90.179 13.9793C90.179 8.49552 93.3882 4.62463 98.523 4.62463C100.876 4.73216 102.695 5.37731 104.3 6.77513Z" fill="#008690"/>
<path d="M23.9625 28.8164V51.7191H10.0557C8.13013 51.7191 6.5255 51.6116 5.24179 51.3965C3.85111 51.1815 2.67438 50.5363 1.60463 49.4611C0.534877 48.3858 0 46.8805 0 44.6225C0 43.1172 0.213951 41.5043 0.748827 39.5688L5.56272 39.7839L5.34877 41.5043C5.24179 42.472 5.13482 43.0096 5.13482 43.2247C5.13482 43.9773 5.45574 44.73 5.99062 45.3752C6.5255 46.0203 7.59525 46.3429 9.0929 46.3429H18.1858V28.8164H23.9625ZM16.0463 39.1388L8.45105 40.6441L8.02315 38.7087L9.5208 38.3861C8.55803 37.6334 8.13013 36.6657 8.13013 35.4829C8.13013 34.5152 8.45105 33.655 9.19988 33.0099C9.84173 32.2572 10.8045 31.9346 11.8743 31.9346C12.7301 31.9346 13.5859 32.1497 14.5486 32.6873L14.0138 35.1603C13.5859 34.8378 13.158 34.7302 12.7301 34.7302C12.3022 34.7302 11.8743 34.8378 11.5533 35.1603C11.2324 35.4829 11.1254 35.8055 11.1254 36.2356C11.1254 36.8807 11.4464 37.4184 11.9812 37.7409L15.4044 36.7732L16.0463 39.1388Z" fill="#008690"/>
<path d="M43.9667 53.01C43.7527 54.5153 43.1109 56.1282 41.9342 57.6335C40.7574 59.1388 39.0458 59.8915 36.4784 59.8915C35.0877 59.8915 32.9482 59.6765 30.1669 59.1388V53.9777C33.1622 54.4078 35.0877 54.6228 35.8366 54.6228C36.7993 54.6228 37.4412 54.4078 37.7621 53.9777C38.083 53.5476 38.297 52.6874 38.19 51.6121H34.9808C32.8413 51.6121 31.2366 51.182 30.1669 50.4294C29.0971 49.5692 28.3483 48.6014 28.0274 47.5262C27.7064 46.3434 27.4925 45.0532 27.4925 43.6553C27.4925 40.9672 27.8134 38.9243 28.5622 37.634C29.3111 36.2361 30.1669 35.376 31.3436 34.9459C32.4134 34.5158 33.804 34.3007 35.4087 34.3007C36.9063 34.3007 38.511 34.4082 40.0086 34.6233C41.5063 34.8383 42.8969 35.0534 43.9667 35.2684V48.1714C44.2876 49.8917 44.1806 51.3971 43.9667 53.01ZM34.125 45.6983C34.5529 46.2359 35.4087 46.451 36.5854 46.451H38.6179V39.6769C37.8691 39.6769 37.2272 39.5694 36.6924 39.5694C36.1575 39.5694 35.6226 39.6769 35.1947 39.7845C34.7668 39.892 34.3389 40.2146 34.018 40.7522C33.6971 41.2898 33.4831 42.15 33.4831 43.2252C33.4831 44.3005 33.6971 45.1607 34.125 45.6983Z" fill="#008690"/>
<path d="M59.0522 35.6996C60.4429 36.6673 61.5127 38.0651 62.1545 39.893C62.9033 41.7209 63.2243 43.8714 63.2243 46.3445V51.6132H47.071V46.3445H57.5546C57.4476 43.979 57.0197 42.151 56.0569 41.0758C55.0941 40.0005 54.0244 39.4629 52.6337 39.4629H48.7826L48.3547 34.9469C50.8151 34.4093 52.7407 34.1942 54.0244 34.1942C56.0569 34.3017 57.6615 34.7318 59.0522 35.6996Z" fill="#008690"/>
<path d="M65.9999 59.7855V54.6243H66.5348C67.7115 54.6243 68.3534 53.7642 68.3534 51.9363V35.055H74.0231V51.1836C74.0231 53.8717 73.5952 56.0222 72.6324 57.635C71.6696 59.2479 70.279 60.0005 68.4604 60.0005C67.9255 59.893 67.1767 59.893 65.9999 59.7855Z" fill="#25BCBD"/>
<path d="M78.2012 28.8163H83.8709V51.7191H78.2012V28.8163Z" fill="#25BCBD"/>
<path d="M100.13 35.6994C101.521 36.6672 102.59 38.065 103.232 39.8929C103.981 41.7208 104.302 43.8713 104.302 46.3444V51.6131H88.1487V46.3444H98.6322C98.5253 43.9788 98.0974 42.1509 97.1346 41.0757C96.1718 40.0004 95.1021 39.4628 93.7114 39.4628H89.8603L89.4324 34.9468C91.8928 34.4091 93.8184 34.1941 95.1021 34.1941C97.1346 34.3016 98.7392 34.7317 100.13 35.6994Z" fill="#25BCBD"/>
</svg>
