<svg width="23" height="23" viewBox="0 0 23 23" fill="none" xmlns="http://www.w3.org/2000/svg">
<path d="M17.184 9.456C17.448 9.456 17.688 9.48 17.952 9.504V4.416C17.952 2.808 16.632 1.488 15.024 1.488H13.152V0.768C13.152 0.336 12.816 0 12.384 0C11.952 0 11.616 0.336 11.616 0.768V1.488H6.336V0.768C6.336 0.336 6 0 5.568 0C5.136 0 4.8 0.336 4.8 0.768V1.488H2.952C1.32 1.488 0 2.808 0 4.416V14.448C0 16.056 1.32 17.376 2.928 17.376H10.056C10.032 17.112 10.008 16.872 10.008 16.608C10.032 12.672 13.248 9.456 17.184 9.456ZM1.536 5.928V4.44C1.536 3.672 2.16 3.024 2.952 3.024H4.8V3.744C4.8 4.176 5.136 4.512 5.568 4.512C6 4.512 6.336 4.176 6.336 3.744V3.024H11.616V3.744C11.616 4.176 11.952 4.512 12.384 4.512C12.816 4.512 13.152 4.176 13.152 3.744V3.024H15.024C15.792 3.024 16.416 3.648 16.416 4.44V5.928H1.536V5.928Z" fill="#131313" fill-opacity="0.7"/>
<path d="M17.1863 10.9922C14.0903 10.9922 11.5703 13.5122 11.5703 16.6082C11.5703 19.7042 14.0903 22.2242 17.1863 22.2242C20.2823 22.2242 22.8023 19.7042 22.8023 16.6082C22.8023 13.5122 20.2823 10.9922 17.1863 10.9922ZM19.2983 17.3762H17.1863C16.7543 17.3762 16.4183 17.0402 16.4183 16.6082V13.9922C16.4183 13.5602 16.7543 13.2242 17.1863 13.2242C17.6183 13.2242 17.9543 13.5602 17.9543 13.9922V15.8402H19.2983C19.7303 15.8402 20.0663 16.1762 20.0663 16.6082C20.0663 17.0402 19.7303 17.3762 19.2983 17.3762Z" fill="#131313" fill-opacity="0.7"/>
</svg>
