<svg width="18" height="24" viewBox="0 0 18 24" fill="none" xmlns="http://www.w3.org/2000/svg">
<path d="M12 0L18 6H13.03C12.7568 6 12.4948 5.89148 12.3017 5.69832C12.1085 5.50516 12 5.24317 12 4.97V0ZM13.03 7H18V22.97C18 23.2432 17.8915 23.5052 17.6983 23.6983C17.5052 23.8915 17.2432 24 16.97 24H1.03C0.756827 24 0.494843 23.8915 0.30168 23.6983C0.108518 23.5052 0 23.2432 0 22.97V1.03C0 0.756827 0.108518 0.494842 0.30168 0.30168C0.494843 0.108518 0.756827 0 1.03 0L11 0V4.97C11 5.23658 11.0525 5.50056 11.1545 5.74685C11.2565 5.99314 11.4061 6.21692 11.5946 6.40543C11.9753 6.78613 12.4916 7 13.03 7ZM15 20.5C15 20.3674 14.9473 20.2402 14.8536 20.1464C14.7598 20.0527 14.6326 20 14.5 20H3.5C3.36739 20 3.24021 20.0527 3.14645 20.1464C3.05268 20.2402 3 20.3674 3 20.5C3 20.6326 3.05268 20.7598 3.14645 20.8536C3.24021 20.9473 3.36739 21 3.5 21H14.5C14.6326 21 14.7598 20.9473 14.8536 20.8536C14.9473 20.7598 15 20.6326 15 20.5ZM15 17C15 16.8674 14.9473 16.7402 14.8536 16.6464C14.7598 16.5527 14.6326 16.5 14.5 16.5H3.5C3.36739 16.5 3.24021 16.5527 3.14645 16.6464C3.05268 16.7402 3 16.8674 3 17C3 17.1326 3.05268 17.2598 3.14645 17.3536C3.24021 17.4473 3.36739 17.5 3.5 17.5H14.5C14.6326 17.5 14.7598 17.4473 14.8536 17.3536C14.9473 17.2598 15 17.1326 15 17ZM15 13.5C15 13.3674 14.9473 13.2402 14.8536 13.1464C14.7598 13.0527 14.6326 13 14.5 13H3.5C3.36739 13 3.24021 13.0527 3.14645 13.1464C3.05268 13.2402 3 13.3674 3 13.5C3 13.6326 3.05268 13.7598 3.14645 13.8536C3.24021 13.9473 3.36739 14 3.5 14H14.5C14.6326 14 14.7598 13.9473 14.8536 13.8536C14.9473 13.7598 15 13.6326 15 13.5ZM14.5 9.5H3.5C3.36739 9.5 3.24021 9.55268 3.14645 9.64645C3.05268 9.74021 3 9.86739 3 10C3 10.1326 3.05268 10.2598 3.14645 10.3536C3.24021 10.4473 3.36739 10.5 3.5 10.5H14.5C14.6326 10.5 14.7598 10.4473 14.8536 10.3536C14.9473 10.2598 15 10.1326 15 10C15 9.86739 14.9473 9.74021 14.8536 9.64645C14.7598 9.55268 14.6326 9.5 14.5 9.5Z" fill="#131313" fill-opacity="0.7"/>
</svg>
