<svg width="24" height="24" viewBox="0 0 24 24" fill="none" xmlns="http://www.w3.org/2000/svg">
<path d="M23.9134 10.6703C23.875 10.3319 23.4814 10.0799 23.1406 10.0799C22.6007 10.0918 22.0702 9.93783 21.6205 9.63875C21.1708 9.33967 20.8237 8.90988 20.6259 8.40735C20.4282 7.90482 20.3893 7.35373 20.5145 6.82841C20.6397 6.30308 20.923 5.8288 21.3262 5.46953C21.4519 5.35573 21.5295 5.19838 21.5433 5.02944C21.5571 4.86049 21.5061 4.69263 21.4006 4.55993C20.84 3.85082 20.2016 3.2068 19.4974 2.63992C19.3642 2.5336 19.1954 2.4821 19.0255 2.49592C18.8556 2.50975 18.6973 2.58786 18.583 2.71432C18.2072 3.11 17.7225 3.38529 17.1902 3.50534C16.6579 3.62539 16.1019 3.58481 15.5926 3.38872C15.0881 3.17281 14.6622 2.80688 14.3728 2.34059C14.0835 1.87431 13.9446 1.33027 13.975 0.782325C13.9842 0.612086 13.9283 0.444735 13.8187 0.314168C13.709 0.183602 13.5539 0.0995808 13.3846 0.0791247C12.4885 -0.02391 11.5837 -0.026325 10.687 0.0719247C10.5201 0.090521 10.3663 0.171161 10.256 0.297854C10.1458 0.424548 10.0872 0.588044 10.0918 0.755925C10.1112 1.2991 9.96415 1.83522 9.67032 2.29247C9.3765 2.74973 8.94995 3.10626 8.44783 3.31432C7.94062 3.50282 7.38947 3.53942 6.86179 3.41964C6.33411 3.29987 5.85277 3.02892 5.47663 2.63992C5.36304 2.51564 5.20665 2.43891 5.03884 2.42511C4.87103 2.41131 4.70421 2.46147 4.57183 2.56552C3.85403 3.12914 3.20336 3.77336 2.63263 4.48553C2.52681 4.61864 2.47519 4.78682 2.4881 4.95638C2.501 5.12594 2.57749 5.28436 2.70223 5.39993C3.11261 5.76777 3.39844 6.25413 3.52014 6.79164C3.64183 7.32914 3.59335 7.89119 3.38143 8.39993C3.15315 8.89584 2.78363 9.31339 2.31915 9.60027C1.85467 9.88716 1.31588 10.0306 0.770234 10.0127C0.600883 10.002 0.434012 10.0576 0.304984 10.1678C0.175957 10.2781 0.0949146 10.4342 0.0790336 10.6031C-0.0263445 11.5089 -0.0263445 12.4238 0.0790336 13.3295C0.110234 13.6799 0.518234 13.9199 0.861434 13.9199C1.39027 13.9157 1.9082 14.0703 2.34811 14.3639C2.78801 14.6574 3.12961 15.0763 3.32863 15.5663C3.53197 16.0702 3.57681 16.6241 3.45717 17.1541C3.33753 17.6841 3.0591 18.1651 2.65903 18.5327C2.53408 18.6464 2.45691 18.8033 2.44311 18.9717C2.4293 19.14 2.47988 19.3074 2.58463 19.4399C3.14235 20.15 3.77927 20.7942 4.48303 21.3599C4.6157 21.4668 4.78413 21.5192 4.95402 21.5062C5.12391 21.4933 5.28248 21.4161 5.39743 21.2903C5.7738 20.894 6.25911 20.6179 6.79216 20.4971C7.32521 20.3762 7.88212 20.4159 8.39263 20.6111C8.89869 20.8245 9.32618 21.1895 9.61629 21.6558C9.9064 22.1221 10.0449 22.6669 10.0126 23.2151C10.0035 23.3854 10.0594 23.5527 10.169 23.6833C10.2786 23.8138 10.4338 23.8979 10.603 23.9183C11.062 23.9705 11.5235 23.997 11.9854 23.9975C12.4257 23.9985 12.8657 23.9736 13.303 23.9231C13.4708 23.9045 13.6253 23.8231 13.7357 23.6954C13.8461 23.5677 13.9041 23.403 13.8982 23.2343C13.8778 22.6916 14.0239 22.1556 14.3169 21.6982C14.6099 21.2409 15.0358 20.8842 15.5374 20.6759C16.0443 20.4883 16.5951 20.453 17.1217 20.5746C17.6484 20.6961 18.128 20.9691 18.5014 21.3599C18.615 21.4842 18.7714 21.5609 18.9392 21.5747C19.107 21.5885 19.2739 21.5384 19.4062 21.4343C20.1229 20.8695 20.7735 20.2254 21.3454 19.5143C21.4523 19.3817 21.5047 19.2132 21.4917 19.0433C21.4788 18.8735 21.4016 18.7149 21.2758 18.5999C20.871 18.243 20.5853 17.7707 20.4572 17.2464C20.329 16.7222 20.3647 16.1713 20.5592 15.6679C20.7538 15.1645 21.0979 14.7329 21.5453 14.431C21.9927 14.1292 22.5218 13.9718 23.0614 13.9799H23.2102C23.3805 13.9891 23.5478 13.9332 23.6784 13.8236C23.809 13.7139 23.893 13.5588 23.9134 13.3895C24.014 12.4859 24.014 11.5739 23.9134 10.6703ZM12.0118 16.0247C11.2206 16.0247 10.447 15.7901 9.78911 15.3505C9.13118 14.9109 8.61839 14.286 8.31558 13.555C8.01276 12.8239 7.93354 12.0195 8.08791 11.2434C8.24228 10.4673 8.62332 9.75445 9.18284 9.19493C9.74236 8.63541 10.4552 8.25437 11.2313 8.1C12.0074 7.94563 12.8118 8.02486 13.5429 8.32767C14.2739 8.63048 14.8988 9.14327 15.3384 9.8012C15.778 10.4591 16.0126 11.2326 16.0126 12.0239C16.0114 13.0846 15.5894 14.1015 14.8394 14.8515C14.0894 15.6015 13.0725 16.0235 12.0118 16.0247Z" fill="#131313" fill-opacity="0.7"/>
</svg>
