<svg width="22" height="22" viewBox="0 0 22 22" fill="none" xmlns="http://www.w3.org/2000/svg">
<path d="M17.0577 18.0508L17.0649 18.0491C17.0649 18.0491 17.0832 19.3146 16.8797 19.828C16.8797 19.828 13.7633 21.8517 8.54349 21.8517L8.54637 21.7338L8.53629 21.8517C3.31653 21.8517 0.20013 19.828 0.20013 19.828C-0.00386973 19.3146 0.0148502 18.0491 0.0148502 18.0491C-0.0492298 17.1383 0.0278102 15.2987 1.62309 14.8934C3.76341 14.3495 5.53893 13.5206 5.53893 13.5206C5.88981 13.0377 5.95245 12.0263 5.95245 12.0263C5.28261 11.3063 4.98573 10.4046 4.86069 9.64216C4.81629 9.6748 4.76541 9.6964 4.70901 9.69496C4.50789 9.69064 4.23837 9.3964 3.94773 8.28136C3.58197 6.8776 3.92517 6.60088 4.25709 6.60352C4.33365 6.604 4.34589 6.60256 4.41261 6.62272L4.41357 6.592C4.41357 6.592 3.42957 3.31144 5.79645 1.86904C5.79645 1.86904 5.38077 1.53232 5.41269 1.04728C5.41269 1.04728 6.49773 1.17016 7.53765 1.17256C8.01021 1.17376 8.47341 1.14952 8.82117 1.07776C8.96013 1.04896 9.10077 1.03744 9.24021 1.04128C10.2168 1.066 11.1525 1.82632 11.3174 2.56024C11.3174 2.56024 11.3318 2.55904 11.358 2.55904C11.6666 2.55856 13.6058 2.70664 12.6753 6.60496C12.6753 6.60496 12.6744 6.61024 12.6732 6.6196C12.7183 6.61 12.7653 6.60376 12.8131 6.60328C13.1462 6.59896 13.4921 6.87352 13.1253 8.28112C12.8323 9.40576 12.5609 9.69544 12.359 9.69472C12.2918 9.69448 12.2325 9.66208 12.1826 9.61768C12.06 10.3864 11.7631 11.3003 11.0846 12.0287L11.1206 12.0266C11.1206 12.0266 11.1761 12.922 11.4749 13.4303C11.4878 13.4368 13.3173 14.3519 15.4502 14.8938C17.046 15.2987 17.1223 17.1405 17.0577 18.0508ZM20.8893 11.0378C20.0249 10.6312 19.5849 10.5498 19.5547 10.5335C19.5285 10.5196 18.0806 10.1392 17.4165 9.77776C17.2603 9.67768 17.1624 9.60304 17.1624 9.60304V9.50176H17.1619V8.88448C17.1619 8.88448 19.1117 8.94424 20.0366 7.99936C20.0366 7.99936 18.6902 7.618 18.9324 5.16736C19.1743 2.71672 18.6307 0.564877 16.661 0.747037C16.661 0.747037 15.8071 -0.280403 14.1079 0.365677C13.7486 0.502477 13.0171 0.767917 12.5265 1.74424C12.8042 1.88896 13.091 2.10376 13.3435 2.42344C13.7105 2.88832 13.9337 3.48784 14.0069 4.20496C14.0594 4.72072 14.0342 5.3104 13.9317 5.96584C13.9649 6.00088 13.9965 6.03784 14.0263 6.07648C14.5689 6.77848 14.4029 7.7728 14.1974 8.56072C14.034 9.1876 13.8566 9.65368 13.655 9.98488C13.4844 10.2654 13.2933 10.4519 13.1061 10.5748C12.9211 11.2324 12.6425 11.8178 12.2733 12.3254C12.2909 12.4245 12.312 12.5226 12.3352 12.6102C12.9506 12.8901 14.2713 13.4505 15.7226 13.8194C16.302 13.9665 16.7952 14.2521 17.1888 14.6682C17.3829 14.8737 17.5497 15.1096 17.6885 15.3722C19.1621 15.1492 20.9858 14.6918 21.7994 13.7596V12.3282C21.7994 12.3282 21.7538 11.4446 20.8893 11.0378Z" fill="#131313" fill-opacity="0.7"/>
</svg>
