<svg width="12" height="14" viewBox="0 0 12 14" fill="none" xmlns="http://www.w3.org/2000/svg">
<path d="M8.6745 6.3147C9.45807 5.88046 10.1074 5.26374 10.5589 4.52493C11.0103 3.78611 11.2485 2.95053 11.25 2.1V1.4H12V0H0V1.4H0.75V2.1C0.751521 2.95053 0.989678 3.78611 1.44115 4.52493C1.89262 5.26374 2.54193 5.88046 3.3255 6.3147C3.591 6.4603 3.75 6.6962 3.75 6.9447V7.0553C3.75 7.3031 3.591 7.5383 3.3255 7.6853C2.54193 8.11954 1.89262 8.73625 1.44115 9.47507C0.989678 10.2139 0.751521 11.0495 0.75 11.9V12.6H0V14H12V12.6H11.25V11.9C11.2486 11.0496 11.0105 10.2142 10.5592 9.47548C10.1078 8.73678 9.45867 8.12016 8.67525 7.686C8.409 7.539 8.25 7.3031 8.25 7.0553V6.9447C8.25 6.6962 8.409 6.4603 8.6745 6.3147ZM9.75 11.9V12.6H2.25V11.9C2.25098 11.2929 2.42083 10.6963 2.74292 10.1689C3.06502 9.64135 3.52832 9.20094 4.0875 8.8907C4.57688 8.62455 4.94581 8.20133 5.1255 7.7H6.8745C7.047 8.1837 7.4025 8.61 7.91325 8.8914C8.47228 9.20156 8.93545 9.64188 9.25741 10.1693C9.57938 10.6966 9.74911 11.293 9.75 11.9Z" fill="url(#paint0_linear_0_110)"/>
<defs>
<linearGradient id="paint0_linear_0_110" x1="6" y1="0" x2="6" y2="14" gradientUnits="userSpaceOnUse">
<stop stop-color="#008690"/>
<stop offset="1" stop-color="#25BCBD"/>
</linearGradient>
</defs>
</svg>
