<svg width="20" height="23" viewBox="0 0 20 23" fill="none" xmlns="http://www.w3.org/2000/svg">
<path d="M18.977 12.8715L16.673 10.5553C16.097 9.97019 15.689 9.19 15.521 8.2879V8.26352C15.161 6.36181 14.105 4.75266 12.497 3.70428C11.705 3.19228 10.841 2.85095 9.95295 2.68028C9.95295 2.534 9.92895 2.41209 9.90495 2.26581C9.68895 1.07114 8.65695 0.242188 7.50495 0.242188C7.36095 0.242188 7.21695 0.266569 7.04895 0.290949C6.40095 0.412854 5.84895 0.778569 5.48895 1.33933C5.12895 1.90009 4.98495 2.534 5.10495 3.19228C5.12895 3.33857 5.17695 3.46047 5.22495 3.60676C3.42495 4.72828 2.17695 6.67876 1.96095 8.89743C1.88895 9.58009 1.91295 10.2384 2.05695 10.8967C2.22495 11.75 2.15295 12.5546 1.84095 13.286L0.544949 16.2605C0.184949 17.0894 0.304949 18.0647 0.856949 18.7717C1.31295 19.3812 2.00895 19.7226 2.75295 19.7226C2.89695 19.7226 3.04095 19.6982 3.18495 19.6738L17.705 17.0407C18.593 16.87 19.313 16.2361 19.577 15.3584C19.841 14.4563 19.625 13.5298 18.977 12.8715ZM7.16895 2.77781C6.88095 2.85095 6.61695 2.94847 6.32895 3.046C6.32895 3.02162 6.30495 2.99724 6.30495 2.94847C6.18495 2.26581 6.61695 1.60752 7.28895 1.48562C7.36095 1.46124 7.43295 1.46124 7.52895 1.46124C8.10495 1.46124 8.63295 1.87571 8.75295 2.48524C8.75295 2.50962 8.75295 2.534 8.75295 2.55838C8.22495 2.58276 7.69695 2.6559 7.16895 2.77781Z" fill="url(#paint0_linear_0_261)"/>
<path d="M5.75403 21.4766C6.35403 21.891 7.05003 22.1105 7.77003 22.1105C7.98603 22.1105 8.22603 22.0861 8.44203 22.0373C9.37803 21.8667 10.194 21.3059 10.722 20.5257C10.89 20.2819 11.01 20.0381 11.106 19.7699L5.08203 20.867C5.27403 21.0865 5.49003 21.3059 5.75403 21.4766Z" fill="url(#paint1_linear_0_261)"/>
<defs>
<linearGradient id="paint0_linear_0_261" x1="10.0134" y1="0.242187" x2="10.0134" y2="19.7226" gradientUnits="userSpaceOnUse">
<stop stop-color="#008690"/>
<stop offset="1" stop-color="#25BCBD"/>
</linearGradient>
<linearGradient id="paint1_linear_0_261" x1="8.09403" y1="19.7699" x2="8.09403" y2="22.1105" gradientUnits="userSpaceOnUse">
<stop stop-color="#008690"/>
<stop offset="1" stop-color="#25BCBD"/>
</linearGradient>
</defs>
</svg>
